<?xml version="1.0" encoding="UTF-8" standalone="no"?>
<!-- Created with Inkscape (http://www.inkscape.org/) -->

<svg
   version="1.1"
   id="svg1"
   width="522.78137"
   height="522.84448"
   viewBox="0 0 522.78138 522.84449"
   sodipodi:docname="ai.svg"
   inkscape:version="1.3.2 (091e20e, 2023-11-25, custom)"
   xmlns:inkscape="http://www.inkscape.org/namespaces/inkscape"
   xmlns:sodipodi="http://sodipodi.sourceforge.net/DTD/sodipodi-0.dtd"
   xmlns="http://www.w3.org/2000/svg"
   xmlns:svg="http://www.w3.org/2000/svg">
  <defs
     id="defs1" />
  <sodipodi:namedview
     id="namedview1"
     pagecolor="#ffffff"
     bordercolor="#000000"
     borderopacity="0.25"
     inkscape:showpageshadow="2"
     inkscape:pageopacity="0.0"
     inkscape:pagecheckerboard="0"
     inkscape:deskcolor="#d1d1d1"
     inkscape:zoom="3.4787191"
     inkscape:cx="261.01561"
     inkscape:cy="261.44681"
     inkscape:window-width="3840"
     inkscape:window-height="2054"
     inkscape:window-x="3829"
     inkscape:window-y="13"
     inkscape:window-maximized="1"
     inkscape:current-layer="g1" />
  <g
     inkscape:groupmode="layer"
     inkscape:label="Image"
     id="g1"
     transform="translate(-0.28514545,-0.11453538)">
    <path
       style="fill:#000000"
       d="M 64.512955,521.35606 C 38.403033,516.15349 16.116041,497.75095 6.3314828,473.31518 -0.01624222,457.46249 0.28746178,468.10858 0.28746178,261.44681 c 0,-159.94494 0.22421,-189.928333 1.46889402,-196.433707 C 6.8763608,38.253248 25.057905,15.977624 49.897827,6.0312366 c 15.951998,-6.38748945 4.90018,-6.09045745 215.410913,-5.78944825 181.26266,0.2591874 192.34155,0.3770305 198.10754,2.10721405 29.20657,8.7639306 48.65186,28.2092186 57.41579,57.4157916 1.73019,5.76599 1.84803,16.844886 2.10722,198.107546 0.30101,210.51073 0.59804,199.45891 -5.78945,215.41091 -9.94639,24.83992 -32.22201,43.02147 -58.98187,48.14147 -10.91889,2.08913 -383.15164,2.02421 -393.655015,-0.0687 z M 457.30874,477.05053 c 8.30979,-3.30732 16.72193,-11.71946 20.02925,-20.02925 l 2.43883,-6.12766 0.28551,-184.85107 c 0.19369,-125.40076 -0.0594,-187.09234 -0.7869,-191.819953 -2.54227,-16.520619 -13.45346,-27.61214 -29.76731,-30.259282 -8.98115,-1.457313 -366.566554,-1.457313 -375.547706,0 -16.088698,2.610609 -27.099028,13.620939 -29.709637,29.709637 -1.457313,8.981152 -1.457313,366.566558 0,375.547708 2.535449,15.6255 13.683985,27.11285 28.778377,29.65296 3.021236,0.50842 87.218196,0.84257 191.768946,0.76105 l 186.38298,-0.14531 z M 164.92596,349.61591 c -7.06326,-3.48117 -10.35848,-11.22256 -8.0122,-18.82292 1.39791,-4.5283 61.35874,-142.90776 65.10412,-150.24932 5.34559,-10.47821 20.66769,-11.59903 26.93014,-1.96996 1.33214,2.04829 17.01818,37.04331 34.85788,77.76671 28.42719,64.89192 32.4439,74.69593 32.50124,79.32937 0.14482,11.70214 -12.10326,19.12167 -22.66829,13.7318 -5.08055,-2.5919 -5.69266,-3.59442 -14.41827,-23.61436 l -6.89936,-15.82978 -35.77969,-0.26822 -35.7797,-0.26821 -7.34356,16.69746 c -8.58572,19.52182 -9.19411,20.49849 -14.43421,23.17179 -4.79486,2.44615 -9.5329,2.5559 -14.0581,0.32564 z m 92.7232,-72.4452 c 0,-1.31286 -20.85408,-48.40475 -21.43546,-48.40475 -0.49351,0 -18.44897,40.36665 -21.01014,47.23404 -0.6216,1.66673 0.78686,1.78723 20.88953,1.78723 11.85584,0 21.55607,-0.27743 21.55607,-0.61652 z m 86.80851,72.32028 c -4.89223,-2.67416 -7.91261,-7.47377 -8.68295,-13.79785 -0.35576,-2.92059 -0.50082,-24.61229 -0.32237,-48.20378 0.31104,-41.11782 0.41132,-43.04146 2.42224,-46.46461 6.26527,-10.66526 19.78387,-11.00762 27.42535,-0.69454 2.09682,2.82991 2.13646,3.77725 2.13646,51.06383 0,46.34367 -0.0779,48.31262 -2.04256,51.64814 -2.94959,5.00763 -6.80527,7.4795 -12.43456,7.97178 -3.55808,0.31115 -5.92035,-0.11202 -8.50161,-1.52297 z m -1.07035,-138.34552 c -5.2401,-3.53131 -7.48284,-8.1982 -7.48284,-15.571 0,-11.22935 5.54617,-17.3617 15.70213,-17.3617 7.22943,0 10.65509,2.12107 14.11667,8.74063 1.95129,3.73145 2.28295,5.60523 1.86991,10.56466 -0.55401,6.65205 -2.47138,10.00018 -7.80598,13.63088 -4.58399,3.11983 -11.76747,3.11831 -16.39989,-0.003 z"
       id="path1" />
  </g>
</svg>
